<svg xmlns="http://www.w3.org/2000/svg" viewBox="0 0 32 32">
<path fill="#ffffff" d="M16 .396C7.163.396 0 7.56 0 16.396c0 2.887.76 5.594 2.094 7.938L.066 32l7.864-2.062A15.93 15.93 0 0016 32c8.837 0 16-7.163 16-16S24.837.396 16 .396zm0 29.29a13.2 13.2 0 01-6.726-1.83l-.482-.285-4.67 1.225 1.247-4.552-.314-.47A13.2 13.2 0 1129.2 16c0 7.282-5.918 13.686-13.2 13.686zm7.254-9.996c-.396-.198-2.34-1.156-2.7-1.287-.36-.132-.624-.198-.888.198-.264.396-1.02 1.287-1.25 1.552-.228.264-.456.297-.852.099-.396-.198-1.674-.618-3.186-1.97-1.177-1.05-1.972-2.35-2.205-2.746-.228-.396-.024-.61.173-.808.177-.177.396-.456.594-.684.198-.228.264-.396.396-.66.132-.264.066-.495-.033-.693-.099-.198-.888-2.145-1.217-2.94-.32-.768-.646-.663-.888-.675l-.756-.014c-.264 0-.693.099-1.056.495-.363.396-1.386 1.353-1.386 3.3s1.419 3.825 1.617 4.089c.198.264 2.79 4.26 6.762 5.973.946.408 1.683.652 2.258.834.949.302 1.813.259 2.495.157.761-.114 2.34-.957 2.673-1.881.33-.924.33-1.716.231-1.881-.099-.165-.363-.264-.759-.462z"/>
</svg>